Coordinates
version=1
nRows=6
nColumns=36
inDegrees=yes

Units are S.I. units (second, meters, Newtons, ...)
If the header above contains a line with 'inDegrees', this indicates whether rotational values are in degrees (yes) or radians (no).

endheader
time	pelvis_tilt	pelvis_list	pelvis_rotation	pelvis_tx	pelvis_ty	pelvis_tz	hip_flexion_r	hip_adduction_r	hip_rotation_r	knee_angle_r	knee_angle_r_beta	ankle_angle_r	subtalar_angle_r	mtp_angle_r	hip_flexion_l	hip_adduction_l	hip_rotation_l	knee_angle_l	knee_angle_l_beta	ankle_angle_l	subtalar_angle_l	mtp_angle_l	lumbar_extension	lumbar_bending	lumbar_rotation	arm_flex_r	arm_add_r	arm_rot_r	elbow_flex_r	pro_sup_r	arm_flex_l	arm_add_l	arm_rot_l	elbow_flex_l	pro_sup_l
      0.69000000	     -1.26526195	      2.69673786	     -1.56946258	      0.86135124	      0.94514474	     -0.18719934	      1.64445811	     -4.42442574	     -4.90582917	     51.97340719	      0.90710708	     -6.43302013	     -4.20455190	     -7.12852970	     17.94192380	      5.98253386	     -5.67029183	     15.69601011	      0.27394706	      1.34735409	     -9.27340432	     -7.12852970	     -4.36052129	     -6.32512699	      7.43847784	      6.15591185	     -1.90820926	     -5.00715500	     34.34330423	    104.05528819	    -13.21275061	     -1.59494740	    -21.65543567	     21.61490134	     99.83301727
      0.70000000	     -1.43953878	      2.89034824	     -1.49362103	      0.87103381	      0.94539116	     -0.18841832	      3.92620806	     -4.99210088	     -4.90003176	     55.47394915	      0.96820306	     -7.43052388	     -6.04178635	     -7.14297681	     17.48159569	      6.23666453	     -6.11225208	     15.74957845	      0.27488200	      2.35315280	     -8.45654480	     -7.14297681	     -4.23362837	     -6.58292958	      6.88233322	      6.21141971	     -1.92446419	     -4.55033628	     33.40390718	    104.14628311	    -12.18226995	     -1.80029028	    -20.03202767	     22.01492578	    100.03543873
      0.71000000	     -1.35763555	      3.16944157	     -1.45587850	      0.88060853	      0.94606326	     -0.18963678	      5.90702789	     -5.68028851	     -4.88218559	     58.70706660	      1.02463161	     -7.28283110	     -6.99386137	     -7.14757103	     16.57808186	      6.67188277	     -6.17532220	     15.45785907	      0.26979054	      3.08011247	     -8.25087395	     -7.14757103	     -4.47983197	     -6.94661812	      6.38259387	      6.19863221	     -1.88432527	     -4.52168798	     32.90517206	    104.15276979	    -10.91514417	     -1.89785833	    -19.39064310	     22.49837943	    100.15629894
      0.72000000	     -1.48845493	      3.26062293	     -1.44189934	      0.88990047	      0.94653836	     -0.19061460	      8.13629160	     -5.99960336	     -4.66799092	     61.62864345	      1.07562274	     -6.89875483	     -8.26730412	     -7.16568660	     16.06452312	      6.80322107	     -6.55997061	     15.48444703	      0.27025458	      4.02388075	     -7.43162763	     -7.16568660	     -4.46444428	     -7.09228391	      5.90930022	      6.26194956	     -1.89964844	     -4.29725021	     32.12502782	    104.27885846	     -9.63523123	     -2.26183180	    -17.09188184	     22.61769661	    100.52490012
      0.73000000	     -1.38459826	      3.31970056	     -1.45418597	      0.89906887	      0.94752923	     -0.19164366	     10.04835043	     -6.25584302	     -4.44558784	     64.11917313	      1.11909068	     -6.18634598	     -9.23755190	     -7.16849373	     15.14363823	      6.99448128	     -6.48456635	     15.19925529	      0.26527705	      4.54639948	     -7.29029815	     -7.16849373	     -4.80712827	     -7.19334124	      5.41290583	      6.29646987	     -1.89525684	     -4.35142585	     31.69164647	    104.27092782	     -8.21815809	     -2.29537447	    -16.59652733	     23.13617842	    100.64193561
      0.74000000	     -1.59703491	      3.28829937	     -1.46488777	      0.90826810	      0.94820110	     -0.19249358	     12.27695642	     -6.32622724	     -4.21971365	     66.26683435	      1.15657444	     -5.33338443	    -10.27416569	     -7.19064575	     14.64290100	      6.98243927	     -6.91867239	     15.05398321	      0.26274157	      5.55069062	     -6.37384042	     -7.19064575	     -4.61990047	     -7.16093025	      5.07690107	      6.23813181	     -1.94477995	     -4.28344566	     30.89273954	    104.42467918	     -6.75629676	     -2.81015149	    -13.38347327	     22.87962890	    101.10698466
